<svg width="455" height="455" viewBox="0 0 455 455" fill="none" xmlns="http://www.w3.org/2000/svg">
<path fill-rule="evenodd" clip-rule="evenodd" d="M246.4 204.35V203.685C246.264 203.908 246.076 204.131 245.958 204.35H246.4Z" fill="black"/>
<path d="M141.522 378.002H74.016V174.906H141.522V378.002Z" fill="black"/>
<path d="M246.4 203.686V204.35H245.958C246.076 204.131 246.264 203.908 246.4 203.685V174.907H178.863C179.768 193.96 178.863 378.003 178.863 378.003H246.4V264.577C246.4 258.491 246.864 252.458 248.64 248.118C253.526 235.968 264.617 223.425 283.281 223.425C307.72 223.425 317.476 242.054 317.476 269.345V378.002H385V261.537C385 199.159 351.693 170.139 307.256 170.139C271.386 170.139 255.373 189.879 246.4 203.686Z" fill="black"/>
<path d="M107.769 147.186H107.323C84.678 147.186 70 131.585 70 112.085C70 92.157 85.107 76.998 108.211 76.998C131.32 76.998 145.521 92.157 145.963 112.085C145.963 131.585 131.32 147.186 107.769 147.186Z" fill="black"/>
</svg>
