<svg width="455" height="455" viewBox="0 0 455 455" fill="none" xmlns="http://www.w3.org/2000/svg">
<path d="M275.636 141.802H354.176V160.922H275.636V141.802Z" fill="black"/>
<path fill-rule="evenodd" clip-rule="evenodd" d="M226.605 291.707C222.812 298.911 217.646 304.748 211.279 309.253C204.863 313.798 197.491 317.131 189.235 319.301C181.073 321.471 172.595 322.563 163.915 322.563H70V128.804H161.351C170.62 128.804 178.983 129.605 186.628 131.262C194.23 132.875 200.718 135.566 206.2 139.255C211.596 142.945 215.821 147.852 218.845 154.035C221.798 160.125 223.279 167.752 223.279 176.769C223.279 186.523 221.066 194.67 216.64 201.183C212.178 207.685 205.626 213.021 196.867 217.163C208.794 220.59 217.625 226.626 223.48 235.208C229.365 243.849 232.246 254.187 232.246 266.309C232.245 276.134 230.363 284.595 226.605 291.707ZM159.044 236.207C168.227 236.207 175.692 238.319 181.289 242.565C186.879 246.873 189.688 253.961 189.688 263.949C189.688 269.043 188.862 273.261 187.138 276.508C185.42 279.784 183.057 282.36 180.204 284.239C177.351 286.193 173.967 287.515 170.152 288.349C166.394 289.19 162.4 289.563 158.189 289.563H112.665V236.207H159.044ZM181.892 184.033C181.892 192.152 179.513 198.072 174.606 201.654C169.649 205.293 163.391 207.086 155.831 207.086H112.663V161.81H152.576C156.349 161.81 160.035 162.079 163.548 162.766C167.126 163.38 170.209 164.519 172.939 166.168C175.691 167.752 177.868 170.015 179.513 172.907C181.102 175.798 181.892 179.524 181.892 184.033Z" fill="black"/>
<path fill-rule="evenodd" clip-rule="evenodd" d="M384.755 261.692H283.518C283.518 272.782 287.268 283.283 293.06 288.919C298.829 294.556 307.171 297.39 317.977 297.39C325.751 297.39 332.469 295.425 338.102 291.509C343.685 287.597 347.083 283.415 348.398 279.072H382.333C376.88 295.96 368.603 308.016 357.315 315.274C346.157 322.563 332.547 326.195 316.691 326.195C305.64 326.195 295.696 324.406 286.765 320.882C277.841 317.314 270.383 312.314 264.111 305.797C257.996 299.248 253.247 291.51 249.863 282.417C246.515 273.374 244.826 263.362 244.826 252.512C244.826 242.022 246.579 232.221 250.006 223.164C253.505 214.075 258.341 206.233 264.7 199.655C271.073 193.041 278.631 187.821 287.433 184.01C296.235 180.212 305.941 178.301 316.691 178.301C328.56 178.301 338.957 180.585 347.867 185.238C356.747 189.826 364.026 196.045 369.745 203.83C375.464 211.601 379.531 220.489 382.075 230.458C384.597 240.41 385.481 250.807 384.755 261.692ZM300.202 210.545C304.282 208.433 309.377 207.398 315.534 207.398C324.997 207.398 332.757 210.139 337.335 215.209C341.933 220.317 345.296 227.581 346.216 237.407H283.519C283.699 234.669 284.288 231.572 285.279 228.159C286.263 224.656 287.959 221.38 290.445 218.276C292.945 215.222 296.214 212.629 300.202 210.545Z" fill="black"/>
</svg>
